<?xml version="1.0" encoding="UTF-8" standalone="no"?><!-- Generator: Gravit.io --><svg xmlns="http://www.w3.org/2000/svg" xmlns:xlink="http://www.w3.org/1999/xlink" style="isolation:isolate" viewBox="765 526.004 136.54 18.664" width="136.54pt" height="18.664pt"><g><path d=" M 818.88 540.52 L 821.58 527.82 L 830 527.82 L 829.68 529.34 L 825.58 529.34 L 824.8 533 L 828.22 533 L 827.9 534.54 L 824.48 534.54 L 823.2 540.52 L 818.88 540.52 L 818.88 540.52 L 818.88 540.52 L 818.88 540.52 L 818.88 540.52 L 818.88 540.52 L 818.88 540.52 Z  M 833.5 530.44 L 831.06 535.88 L 833.96 535.88 L 833.5 530.44 L 833.5 530.44 L 833.5 530.44 L 833.5 530.44 L 833.5 530.44 L 833.5 530.44 L 833.5 530.44 Z  M 851.64 535.66 L 850.84 539.44 L 850.84 539.44 Q 850.34 539.68 849.81 539.91 L 849.81 539.91 L 849.81 539.91 Q 849.28 540.14 848.68 540.31 L 848.68 540.31 L 848.68 540.31 Q 848.08 540.48 847.37 540.58 L 847.37 540.58 L 847.37 540.58 Q 846.66 540.68 845.82 540.68 L 845.82 540.68 L 845.82 540.68 Q 843.14 540.68 841.69 539.48 L 841.69 539.48 L 841.69 539.48 Q 840.24 538.28 840.24 535.48 L 840.24 535.48 L 840.24 535.48 Q 840.24 533.86 840.74 532.43 L 840.74 532.43 L 840.74 532.43 Q 841.24 531 842.22 529.93 L 842.22 529.93 L 842.22 529.93 Q 843.2 528.86 844.64 528.24 L 844.64 528.24 L 844.64 528.24 Q 846.08 527.62 847.94 527.62 L 847.94 527.62 L 847.94 527.62 Q 848.82 527.62 849.55 527.74 L 849.55 527.74 L 849.55 527.74 Q 850.28 527.86 850.87 528.05 L 850.87 528.05 L 850.87 528.05 Q 851.46 528.24 851.93 528.46 L 851.93 528.46 L 851.93 528.46 Q 852.4 528.68 852.78 528.88 L 852.78 528.88 L 852.06 532.6 L 848.46 532.6 L 848.46 532.6 Q 848.48 532.4 848.51 532.08 L 848.51 532.08 L 848.51 532.08 Q 848.54 531.76 848.56 531.43 L 848.56 531.43 L 848.56 531.43 Q 848.58 531.1 848.6 530.78 L 848.6 530.78 L 848.6 530.78 Q 848.62 530.46 848.62 530.24 L 848.62 530.24 L 848.62 530.24 Q 848.62 530.08 848.6 529.87 L 848.6 529.87 L 848.6 529.87 Q 848.58 529.66 848.5 529.46 L 848.5 529.46 L 848.5 529.46 Q 848.42 529.26 848.25 529.13 L 848.25 529.13 L 848.25 529.13 Q 848.08 529 847.8 529 L 847.8 529 L 847.8 529 Q 847.28 529 846.85 529.43 L 846.85 529.43 L 846.85 529.43 Q 846.42 529.86 846.08 530.57 L 846.08 530.57 L 846.08 530.57 Q 845.74 531.28 845.48 532.18 L 845.48 532.18 L 845.48 532.18 Q 845.22 533.08 845.05 534.01 L 845.05 534.01 L 845.05 534.01 Q 844.88 534.94 844.79 535.84 L 844.79 535.84 L 844.79 535.84 Q 844.7 536.74 844.7 537.42 L 844.7 537.42 L 844.7 537.42 Q 844.7 537.62 844.72 537.92 L 844.72 537.92 L 844.72 537.92 Q 844.74 538.22 844.84 538.5 L 844.84 538.5 L 844.84 538.5 Q 844.94 538.78 845.15 538.98 L 845.15 538.98 L 845.15 538.98 Q 845.36 539.18 845.72 539.18 L 845.72 539.18 L 845.72 539.18 Q 846.34 539.18 846.92 538.41 L 846.92 538.41 L 846.92 538.41 Q 847.5 537.64 847.94 535.66 L 847.94 535.66 L 851.64 535.66 L 851.64 535.66 L 851.64 535.66 L 851.64 535.66 L 851.64 535.66 L 851.64 535.66 L 851.64 535.66 Z  M 864.86 527.82 L 864.52 529.34 L 861.3 529.34 L 858.92 540.52 L 854.6 540.52 L 856.98 529.34 L 853.8 529.34 L 854.16 527.82 L 864.86 527.82 L 864.86 527.82 L 864.86 527.82 L 864.86 527.82 L 864.86 527.82 L 864.86 527.82 L 864.86 527.82 Z  M 869.04 539.28 L 869.04 539.28 L 869.04 539.28 Q 869.5 539.28 869.91 538.87 L 869.91 538.87 L 869.91 538.87 Q 870.32 538.46 870.67 537.77 L 870.67 537.77 L 870.67 537.77 Q 871.02 537.08 871.31 536.2 L 871.31 536.2 L 871.31 536.2 Q 871.6 535.32 871.8 534.38 L 871.8 534.38 L 871.8 534.38 Q 872 533.44 872.11 532.51 L 872.11 532.51 L 872.11 532.51 Q 872.22 531.58 872.22 530.82 L 872.22 530.82 L 872.22 530.82 Q 872.22 529.78 872.01 529.39 L 872.01 529.39 L 872.01 529.39 Q 871.8 529 871.4 529 L 871.4 529 L 871.4 529 Q 870.94 529 870.52 529.4 L 870.52 529.4 L 870.52 529.4 Q 870.1 529.8 869.73 530.47 L 869.73 530.47 L 869.73 530.47 Q 869.36 531.14 869.07 532.01 L 869.07 532.01 L 869.07 532.01 Q 868.78 532.88 868.57 533.8 L 868.57 533.8 L 868.57 533.8 Q 868.36 534.72 868.25 535.62 L 868.25 535.62 L 868.25 535.62 Q 868.14 536.52 868.14 537.28 L 868.14 537.28 L 868.14 537.28 Q 868.14 538.42 868.39 538.85 L 868.39 538.85 L 868.39 538.85 Q 868.64 539.28 869.04 539.28 L 869.04 539.28 L 869.04 539.28 L 869.04 539.28 L 869.04 539.28 L 869.04 539.28 Z  M 882.54 533.7 L 883.48 533.7 L 883.48 533.7 Q 884 533.7 884.37 533.35 L 884.37 533.35 L 884.37 533.35 Q 884.74 533 884.97 532.5 L 884.97 532.5 L 884.97 532.5 Q 885.2 532 885.3 531.43 L 885.3 531.43 L 885.3 531.43 Q 885.4 530.86 885.4 530.44 L 885.4 530.44 L 885.4 530.44 Q 885.4 529.92 885.22 529.55 L 885.22 529.55 L 885.22 529.55 Q 885.04 529.18 884.44 529.18 L 884.44 529.18 L 883.54 529.18 L 882.54 533.7 L 882.54 533.7 L 882.54 533.7 L 882.54 533.7 L 882.54 533.7 L 882.54 533.7 L 882.54 533.7 Z  M 901.54 527.82 L 896.44 535.72 L 895.42 540.52 L 891.08 540.52 L 892.18 535.38 L 890.22 527.82 L 895.02 527.82 L 896.38 532.84 L 899.38 527.82 L 901.54 527.82 L 901.54 527.82 L 901.54 527.82 L 901.54 527.82 L 901.54 527.82 L 901.54 527.82 L 901.54 527.82 Z  M 814.36 535.66 L 813.56 539.44 L 813.56 539.44 Q 813.06 539.68 812.53 539.91 L 812.53 539.91 L 812.53 539.91 Q 812 540.14 811.4 540.31 L 811.4 540.31 L 811.4 540.31 Q 810.8 540.48 810.09 540.58 L 810.09 540.58 L 810.09 540.58 Q 809.38 540.68 808.54 540.68 L 808.54 540.68 L 808.54 540.68 Q 805.86 540.68 804.41 539.48 L 804.41 539.48 L 804.41 539.48 Q 802.96 538.28 802.96 535.48 L 802.96 535.48 L 802.96 535.48 Q 802.96 533.86 803.46 532.43 L 803.46 532.43 L 803.46 532.43 Q 803.96 531 804.94 529.93 L 804.94 529.93 L 804.94 529.93 Q 805.92 528.86 807.36 528.24 L 807.36 528.24 L 807.36 528.24 Q 808.8 527.62 810.66 527.62 L 810.66 527.62 L 810.66 527.62 Q 811.54 527.62 812.27 527.74 L 812.27 527.74 L 812.27 527.74 Q 813 527.86 813.59 528.05 L 813.59 528.05 L 813.59 528.05 Q 814.18 528.24 814.65 528.46 L 814.65 528.46 L 814.65 528.46 Q 815.12 528.68 815.5 528.88 L 815.5 528.88 L 814.78 532.6 L 811.18 532.6 L 811.18 532.6 Q 811.2 532.4 811.23 532.08 L 811.23 532.08 L 811.23 532.08 Q 811.26 531.76 811.28 531.43 L 811.28 531.43 L 811.28 531.43 Q 811.3 531.1 811.32 530.78 L 811.32 530.78 L 811.32 530.78 Q 811.34 530.46 811.34 530.24 L 811.34 530.24 L 811.34 530.24 Q 811.34 530.08 811.32 529.87 L 811.32 529.87 L 811.32 529.87 Q 811.3 529.66 811.22 529.46 L 811.22 529.46 L 811.22 529.46 Q 811.14 529.26 810.97 529.13 L 810.97 529.13 L 810.97 529.13 Q 810.8 529 810.52 529 L 810.52 529 L 810.52 529 Q 810 529 809.57 529.43 L 809.57 529.43 L 809.57 529.43 Q 809.14 529.86 808.8 530.57 L 808.8 530.57 L 808.8 530.57 Q 808.46 531.28 808.2 532.18 L 808.2 532.18 L 808.2 532.18 Q 807.94 533.08 807.77 534.01 L 807.77 534.01 L 807.77 534.01 Q 807.6 534.94 807.51 535.84 L 807.51 535.84 L 807.51 535.84 Q 807.42 536.74 807.42 537.42 L 807.42 537.42 L 807.42 537.42 Q 807.42 537.62 807.44 537.92 L 807.44 537.92 L 807.44 537.92 Q 807.46 538.22 807.56 538.5 L 807.56 538.5 L 807.56 538.5 Q 807.66 538.78 807.87 538.98 L 807.87 538.98 L 807.87 538.98 Q 808.08 539.18 808.44 539.18 L 808.44 539.18 L 808.44 539.18 Q 809.06 539.18 809.64 538.41 L 809.64 538.41 L 809.64 538.41 Q 810.22 537.64 810.66 535.66 L 810.66 535.66 L 814.36 535.66 L 814.36 535.66 L 814.36 535.66 L 814.36 535.66 L 814.36 535.66 L 814.36 535.66 L 814.36 535.66 Z  M 780.5 535.04 L 781.42 535.04 L 781.42 535.04 Q 782.02 535.04 782.43 534.54 L 782.43 534.54 L 782.43 534.54 Q 782.84 534.04 783.11 533.32 L 783.11 533.32 L 783.11 533.32 Q 783.38 532.6 783.5 531.82 L 783.5 531.82 L 783.5 531.82 Q 783.62 531.04 783.62 530.46 L 783.62 530.46 L 783.62 530.46 Q 783.62 529.92 783.44 529.55 L 783.44 529.55 L 783.44 529.55 Q 783.26 529.18 782.66 529.18 L 782.66 529.18 L 781.76 529.18 L 780.5 535.04 L 780.5 535.04 L 780.5 535.04 L 780.5 535.04 L 780.5 535.04 L 780.5 535.04 L 780.5 535.04 Z  M 796.215 527.995 C 796.9 528.141 797.542 528.477 798.048 528.992 L 797.864 528.953 C 795.215 528.399 792.616 530.087 792.046 532.732 C 791.906 532.907 791.885 533.005 791.942 533.221 C 791.678 532.55 791.527 531.715 791.694 530.931 C 792.134 528.874 794.156 527.561 796.215 527.995 L 796.215 527.995 L 796.215 527.995 L 796.215 527.995 L 796.215 527.995 L 796.215 527.995 L 796.215 527.995 Z  M 791.352 540.348 C 791.166 540.308 790.972 540.344 790.812 540.448 C 790.652 540.552 790.54 540.715 790.501 540.901 L 790.189 542.369 C 790.085 542.858 790.339 543.2 790.73 543.283 L 791.279 543.4 C 791.477 544.008 791.969 544.473 792.681 544.624 C 793.38 544.772 794.028 544.535 794.458 544.075 L 795.131 544.219 C 795.521 544.301 795.883 543.987 795.966 543.596 L 796.278 542.129 C 796.361 541.74 796.143 541.367 795.754 541.284 L 791.352 540.348 L 791.352 540.348 L 791.352 540.348 L 791.352 540.348 L 791.352 540.348 L 791.352 540.348 Z  M 768.556 541.284 L 786.904 541.284 C 787.211 541.284 787.46 541.533 787.46 541.84 L 787.46 542.227 C 787.46 542.535 787.211 542.784 786.904 542.784 L 768.556 542.784 C 768.249 542.784 768 542.535 768 542.227 L 768 541.84 C 768 541.533 768.249 541.284 768.556 541.284 L 768.556 541.284 L 768.556 541.284 L 768.556 541.284 Z  M 765.384 537.083 L 773.869 537.083 C 774.081 537.083 774.253 537.255 774.253 537.467 L 774.253 538.2 C 774.253 538.411 774.081 538.583 773.869 538.583 L 765.384 538.583 C 765.172 538.583 765 538.411 765 538.2 L 765 537.467 C 765 537.255 765.172 537.083 765.384 537.083 L 765.384 537.083 L 765.384 537.083 Z  M 770.685 529.083 L 776.149 529.083 C 776.32 529.083 776.46 529.223 776.46 529.395 L 776.46 530.272 C 776.46 530.444 776.32 530.583 776.149 530.583 L 770.685 530.583 C 770.513 530.583 770.373 530.444 770.373 530.272 L 770.373 529.395 C 770.373 529.223 770.513 529.083 770.685 529.083 L 770.685 529.083 Z  M 837.68 527.82 L 839.06 540.52 L 834.38 540.52 L 834.1 537.34 L 830.4 537.34 L 828.98 540.52 L 827.04 540.52 L 832.94 527.82 L 837.68 527.82 L 837.68 527.82 L 837.68 527.82 L 837.68 527.82 L 837.68 527.82 L 837.68 527.82 L 837.68 527.82 Z  M 871.3 527.62 L 871.3 527.62 L 871.3 527.62 Q 873.02 527.62 874.09 528.06 L 874.09 528.06 L 874.09 528.06 Q 875.16 528.5 875.78 529.42 L 875.78 529.42 L 875.78 529.42 Q 876.18 530.04 876.4 530.82 L 876.4 530.82 L 876.4 530.82 Q 876.62 531.6 876.62 532.62 L 876.62 532.62 L 876.62 532.62 Q 876.62 533.5 876.46 534.38 L 876.46 534.38 L 876.46 534.38 Q 876.3 535.26 876.01 536.07 L 876.01 536.07 L 876.01 536.07 Q 875.72 536.88 875.31 537.59 L 875.31 537.59 L 875.31 537.59 Q 874.9 538.3 874.4 538.84 L 874.4 538.84 L 874.4 538.84 Q 873.46 539.86 872.23 540.27 L 872.23 540.27 L 872.23 540.27 Q 871 540.68 869.2 540.68 L 869.2 540.68 L 869.2 540.68 Q 867.46 540.68 866.4 540.32 L 866.4 540.32 L 866.4 540.32 Q 865.34 539.96 864.72 539.16 L 864.72 539.16 L 864.72 539.16 Q 864.28 538.6 864.03 537.74 L 864.03 537.74 L 864.03 537.74 Q 863.78 536.88 863.78 535.58 L 863.78 535.58 L 863.78 535.58 Q 863.78 533.36 864.57 531.61 L 864.57 531.61 L 864.57 531.61 Q 865.36 529.86 866.82 528.84 L 866.82 528.84 L 866.82 528.84 Q 867.7 528.22 868.78 527.92 L 868.78 527.92 L 868.78 527.92 Q 869.86 527.62 871.3 527.62 L 871.3 527.62 L 871.3 527.62 L 871.3 527.62 L 871.3 527.62 L 871.3 527.62 Z  M 889.24 530.84 L 889.24 530.84 L 889.24 530.84 Q 889.24 532.02 888.58 533.02 L 888.58 533.02 L 888.58 533.02 Q 887.92 534.02 886.4 534.54 L 886.4 534.54 L 888.72 540.52 L 884.26 540.52 L 882.5 534.98 L 882.28 534.98 L 881.1 540.52 L 876.78 540.52 L 879.48 527.82 L 884.74 527.82 L 884.74 527.82 Q 885.66 527.82 886.48 527.93 L 886.48 527.93 L 886.48 527.93 Q 887.3 528.04 887.91 528.37 L 887.91 528.37 L 887.91 528.37 Q 888.52 528.7 888.88 529.29 L 888.88 529.29 L 888.88 529.29 Q 889.24 529.88 889.24 530.84 L 889.24 530.84 L 889.24 530.84 L 889.24 530.84 L 889.24 530.84 L 889.24 530.84 Z  M 781.36 536.32 L 780.22 536.32 L 779.32 540.52 L 775 540.52 L 777.7 527.82 L 782.32 527.82 L 782.32 527.82 Q 783.46 527.82 784.4 527.94 L 784.4 527.94 L 784.4 527.94 Q 785.34 528.06 786.02 528.42 L 786.02 528.42 L 786.02 528.42 Q 786.7 528.78 787.08 529.45 L 787.08 529.45 L 787.08 529.45 Q 787.46 530.12 787.46 531.24 L 787.46 531.24 L 787.46 531.24 Q 787.46 532.28 787.13 533.21 L 787.13 533.21 L 787.13 533.21 Q 786.8 534.14 786.07 534.83 L 786.07 534.83 L 786.07 534.83 Q 785.34 535.52 784.18 535.92 L 784.18 535.92 L 784.18 535.92 Q 783.02 536.32 781.36 536.32 L 781.36 536.32 L 781.36 536.32 L 781.36 536.32 L 781.36 536.32 L 781.36 536.32 L 781.36 536.32 L 781.36 536.32 Z  M 796.611 526.131 C 793.481 525.466 790.382 527.478 789.717 530.607 C 789.031 533.836 791.386 536.285 791.033 537.947 L 790.955 538.314 C 790.872 538.704 791.089 539.079 791.478 539.161 L 795.88 540.097 C 796.066 540.137 796.261 540.101 796.421 539.997 C 796.581 539.893 796.693 539.729 796.732 539.542 L 796.81 539.175 C 797.163 537.513 800.279 536.227 800.966 532.998 C 801.731 529.891 799.741 526.796 796.611 526.131 L 796.611 526.131 L 796.611 526.131 L 796.611 526.131 L 796.611 526.131 L 796.611 526.131 Z  M 770.133 533.083 L 775.161 533.083 C 775.326 533.083 775.46 533.217 775.46 533.383 L 775.46 534.284 C 775.46 534.449 775.326 534.583 775.161 534.583 L 770.133 534.583 C 769.967 534.583 769.833 534.449 769.833 534.284 L 769.833 533.383 C 769.833 533.217 769.967 533.083 770.133 533.083 Z " fill-rule="evenodd" fill="rgb(255,68,0)"/></g></svg>